<?xml version="1.0" encoding="utf-8" standalone="no"?>
<!DOCTYPE svg PUBLIC "-//W3C//DTD SVG 1.1//EN"
  "http://www.w3.org/Graphics/SVG/1.1/DTD/svg11.dtd">
<svg xmlns:xlink="http://www.w3.org/1999/xlink" width="640.921719pt" height="314.92041pt" viewBox="0 0 640.921719 314.92041" xmlns="http://www.w3.org/2000/svg" version="1.1">
 <metadata>
  <rdf:RDF xmlns:dc="http://purl.org/dc/elements/1.1/" xmlns:cc="http://creativecommons.org/ns#" xmlns:rdf="http://www.w3.org/1999/02/22-rdf-syntax-ns#">
   <cc:Work>
    <dc:type rdf:resource="http://purl.org/dc/dcmitype/StillImage"/>
    <dc:date>2026-08-02T08:55:27.716047</dc:date>
    <dc:format>image/svg+xml</dc:format>
    <dc:creator>
     <cc:Agent>
      <dc:title>Matplotlib v3.11.1, https://matplotlib.org/</dc:title>
     </cc:Agent>
    </dc:creator>
   </cc:Work>
  </rdf:RDF>
 </metadata>
 <defs>
  <style type="text/css">*{stroke-linejoin: round; stroke-linecap: butt}</style>
 </defs>
 <g id="figure_1">
  <g id="patch_1">
   <path d="M 0 314.92041 
L 640.921719 314.92041 
L 640.921719 0 
L 0 0 
z
" style="fill: #ffffff"/>
  </g>
  <g id="axes_1">
   <g id="patch_2">
    <path d="M 84.161719 252.723267 
L 633.721719 252.723267 
L 633.721719 23.229938 
L 84.161719 23.229938 
z
" style="fill: #ffffff"/>
   </g>
   <g id="matplotlib.axis_1">
    <g id="xtick_1">
     <g id="line2d_1">
      <path d="M 139.117719 252.723267 
L 139.117719 23.229938 
" clip-path="url(#p881355a1e5)" style="fill: none; stroke-dasharray: 0.8,1.32; stroke-dashoffset: 0; stroke: #cccccc; stroke-opacity: 0.5; stroke-width: 0.8"/>
     </g>
     <g id="text_1">
      <!-- muito baixo -->
      <g style="fill: #262626" transform="translate(77.168094 289.79634) rotate(-20) scale(0.11 -0.11)">
       <defs>
        <path id="DejaVuSans-50" d="M 3328 2828 
Q 3544 3216 3844 3400 
Q 4144 3584 4550 3584 
Q 5097 3584 5394 3201 
Q 5691 2819 5691 2113 
L 5691 0 
L 5113 0 
L 5113 2094 
Q 5113 2597 4934 2840 
Q 4756 3084 4391 3084 
Q 3944 3084 3684 2787 
Q 3425 2491 3425 1978 
L 3425 0 
L 2847 0 
L 2847 2094 
Q 2847 2600 2669 2842 
Q 2491 3084 2119 3084 
Q 1678 3084 1418 2786 
Q 1159 2488 1159 1978 
L 1159 0 
L 581 0 
L 581 3500 
L 1159 3500 
L 1159 2956 
Q 1356 3278 1631 3431 
Q 1906 3584 2284 3584 
Q 2666 3584 2933 3390 
Q 3200 3197 3328 2828 
z
" transform="scale(0.015625)"/>
        <path id="DejaVuSans-58" d="M 544 1381 
L 544 3500 
L 1119 3500 
L 1119 1403 
Q 1119 906 1312 657 
Q 1506 409 1894 409 
Q 2359 409 2629 706 
Q 2900 1003 2900 1516 
L 2900 3500 
L 3475 3500 
L 3475 0 
L 2900 0 
L 2900 538 
Q 2691 219 2414 64 
Q 2138 -91 1772 -91 
Q 1169 -91 856 284 
Q 544 659 544 1381 
z
M 1991 3584 
L 1991 3584 
z
" transform="scale(0.015625)"/>
        <path id="DejaVuSans-4c" d="M 603 3500 
L 1178 3500 
L 1178 0 
L 603 0 
L 603 3500 
z
M 603 4863 
L 1178 4863 
L 1178 4134 
L 603 4134 
L 603 4863 
z
" transform="scale(0.015625)"/>
        <path id="DejaVuSans-57" d="M 1172 4494 
L 1172 3500 
L 2356 3500 
L 2356 3053 
L 1172 3053 
L 1172 1153 
Q 1172 725 1289 603 
Q 1406 481 1766 481 
L 2356 481 
L 2356 0 
L 1766 0 
Q 1100 0 847 248 
Q 594 497 594 1153 
L 594 3053 
L 172 3053 
L 172 3500 
L 594 3500 
L 594 4494 
L 1172 4494 
z
" transform="scale(0.015625)"/>
        <path id="DejaVuSans-52" d="M 1959 3097 
Q 1497 3097 1228 2736 
Q 959 2375 959 1747 
Q 959 1119 1226 758 
Q 1494 397 1959 397 
Q 2419 397 2687 759 
Q 2956 1122 2956 1747 
Q 2956 2369 2687 2733 
Q 2419 3097 1959 3097 
z
M 1959 3584 
Q 2709 3584 3137 3096 
Q 3566 2609 3566 1747 
Q 3566 888 3137 398 
Q 2709 -91 1959 -91 
Q 1206 -91 779 398 
Q 353 888 353 1747 
Q 353 2609 779 3096 
Q 1206 3584 1959 3584 
z
" transform="scale(0.015625)"/>
        <path id="DejaVuSans-3" transform="scale(0.015625)"/>
        <path id="DejaVuSans-45" d="M 3116 1747 
Q 3116 2381 2855 2742 
Q 2594 3103 2138 3103 
Q 1681 3103 1420 2742 
Q 1159 2381 1159 1747 
Q 1159 1113 1420 752 
Q 1681 391 2138 391 
Q 2594 391 2855 752 
Q 3116 1113 3116 1747 
z
M 1159 2969 
Q 1341 3281 1617 3432 
Q 1894 3584 2278 3584 
Q 2916 3584 3314 3078 
Q 3713 2572 3713 1747 
Q 3713 922 3314 415 
Q 2916 -91 2278 -91 
Q 1894 -91 1617 61 
Q 1341 213 1159 525 
L 1159 0 
L 581 0 
L 581 4863 
L 1159 4863 
L 1159 2969 
z
" transform="scale(0.015625)"/>
        <path id="DejaVuSans-44" d="M 2194 1759 
Q 1497 1759 1228 1600 
Q 959 1441 959 1056 
Q 959 750 1161 570 
Q 1363 391 1709 391 
Q 2188 391 2477 730 
Q 2766 1069 2766 1631 
L 2766 1759 
L 2194 1759 
z
M 3341 1997 
L 3341 0 
L 2766 0 
L 2766 531 
Q 2569 213 2275 61 
Q 1981 -91 1556 -91 
Q 1019 -91 701 211 
Q 384 513 384 1019 
Q 384 1609 779 1909 
Q 1175 2209 1959 2209 
L 2766 2209 
L 2766 2266 
Q 2766 2663 2505 2880 
Q 2244 3097 1772 3097 
Q 1472 3097 1187 3025 
Q 903 2953 641 2809 
L 641 3341 
Q 956 3463 1253 3523 
Q 1550 3584 1831 3584 
Q 2591 3584 2966 3190 
Q 3341 2797 3341 1997 
z
" transform="scale(0.015625)"/>
        <path id="DejaVuSans-5b" d="M 3513 3500 
L 2247 1797 
L 3578 0 
L 2900 0 
L 1881 1375 
L 863 0 
L 184 0 
L 1544 1831 
L 300 3500 
L 978 3500 
L 1906 2253 
L 2834 3500 
L 3513 3500 
z
" transform="scale(0.015625)"/>
       </defs>
       <use xlink:href="#DejaVuSans-50"/>
       <use xlink:href="#DejaVuSans-58" transform="translate(97.40625 0)"/>
       <use xlink:href="#DejaVuSans-4c" transform="translate(160.78125 0)"/>
       <use xlink:href="#DejaVuSans-57" transform="translate(188.5625 0)"/>
       <use xlink:href="#DejaVuSans-52" transform="translate(227.765625 0)"/>
       <use xlink:href="#DejaVuSans-3" transform="translate(288.953125 0)"/>
       <use xlink:href="#DejaVuSans-45" transform="translate(320.734375 0)"/>
       <use xlink:href="#DejaVuSans-44" transform="translate(384.21875 0)"/>
       <use xlink:href="#DejaVuSans-4c" transform="translate(445.5 0)"/>
       <use xlink:href="#DejaVuSans-5b" transform="translate(473.28125 0)"/>
       <use xlink:href="#DejaVuSans-52" transform="translate(529.390625 0)"/>
      </g>
     </g>
    </g>
    <g id="xtick_2">
     <g id="line2d_2">
      <path d="M 249.029719 252.723267 
L 249.029719 23.229938 
" clip-path="url(#p881355a1e5)" style="fill: none; stroke-dasharray: 0.8,1.32; stroke-dashoffset: 0; stroke: #cccccc; stroke-opacity: 0.5; stroke-width: 0.8"/>
     </g>
     <g id="text_2">
      <!-- baixo -->
      <g style="fill: #262626" transform="translate(220.233184 277.729602) rotate(-20) scale(0.11 -0.11)">
       <use xlink:href="#DejaVuSans-45"/>
       <use xlink:href="#DejaVuSans-44" transform="translate(63.484375 0)"/>
       <use xlink:href="#DejaVuSans-4c" transform="translate(124.765625 0)"/>
       <use xlink:href="#DejaVuSans-5b" transform="translate(152.546875 0)"/>
       <use xlink:href="#DejaVuSans-52" transform="translate(208.65625 0)"/>
      </g>
     </g>
    </g>
    <g id="xtick_3">
     <g id="line2d_3">
      <path d="M 358.941719 252.723267 
L 358.941719 23.229938 
" clip-path="url(#p881355a1e5)" style="fill: none; stroke-dasharray: 0.8,1.32; stroke-dashoffset: 0; stroke: #cccccc; stroke-opacity: 0.5; stroke-width: 0.8"/>
     </g>
     <g id="text_3">
      <!-- médio -->
      <g style="fill: #262626" transform="translate(325.850642 279.706152) rotate(-20) scale(0.11 -0.11)">
       <defs>
        <path id="DejaVuSans-ab" d="M 3597 1894 
L 3597 1613 
L 953 1613 
Q 991 1019 1311 708 
Q 1631 397 2203 397 
Q 2534 397 2845 478 
Q 3156 559 3463 722 
L 3463 178 
Q 3153 47 2828 -22 
Q 2503 -91 2169 -91 
Q 1331 -91 842 396 
Q 353 884 353 1716 
Q 353 2575 817 3079 
Q 1281 3584 2069 3584 
Q 2775 3584 3186 3129 
Q 3597 2675 3597 1894 
z
M 3022 2063 
Q 3016 2534 2758 2815 
Q 2500 3097 2075 3097 
Q 1594 3097 1305 2825 
Q 1016 2553 972 2059 
L 3022 2063 
z
M 2468 5119 
L 3090 5119 
L 2072 3944 
L 1593 3944 
L 2468 5119 
z
" transform="scale(0.015625)"/>
        <path id="DejaVuSans-47" d="M 2906 2969 
L 2906 4863 
L 3481 4863 
L 3481 0 
L 2906 0 
L 2906 525 
Q 2725 213 2448 61 
Q 2172 -91 1784 -91 
Q 1150 -91 751 415 
Q 353 922 353 1747 
Q 353 2572 751 3078 
Q 1150 3584 1784 3584 
Q 2172 3584 2448 3432 
Q 2725 3281 2906 2969 
z
M 947 1747 
Q 947 1113 1208 752 
Q 1469 391 1925 391 
Q 2381 391 2643 752 
Q 2906 1113 2906 1747 
Q 2906 2381 2643 2742 
Q 2381 3103 1925 3103 
Q 1469 3103 1208 2742 
Q 947 2381 947 1747 
z
" transform="scale(0.015625)"/>
       </defs>
       <use xlink:href="#DejaVuSans-50"/>
       <use xlink:href="#DejaVuSans-ab" transform="translate(97.40625 0)"/>
       <use xlink:href="#DejaVuSans-47" transform="translate(158.9375 0)"/>
       <use xlink:href="#DejaVuSans-4c" transform="translate(222.421875 0)"/>
       <use xlink:href="#DejaVuSans-52" transform="translate(250.203125 0)"/>
      </g>
     </g>
    </g>
    <g id="xtick_4">
     <g id="line2d_4">
      <path d="M 468.853719 252.723267 
L 468.853719 23.229938 
" clip-path="url(#p881355a1e5)" style="fill: none; stroke-dasharray: 0.8,1.32; stroke-dashoffset: 0; stroke: #cccccc; stroke-opacity: 0.5; stroke-width: 0.8"/>
     </g>
     <g id="text_4">
      <!-- alto -->
      <g style="fill: #262626" transform="translate(448.366856 274.705129) rotate(-20) scale(0.11 -0.11)">
       <defs>
        <path id="DejaVuSans-4f" d="M 603 4863 
L 1178 4863 
L 1178 0 
L 603 0 
L 603 4863 
z
" transform="scale(0.015625)"/>
       </defs>
       <use xlink:href="#DejaVuSans-44"/>
       <use xlink:href="#DejaVuSans-4f" transform="translate(61.28125 0)"/>
       <use xlink:href="#DejaVuSans-57" transform="translate(89.0625 0)"/>
       <use xlink:href="#DejaVuSans-52" transform="translate(128.265625 0)"/>
      </g>
     </g>
    </g>
    <g id="xtick_5">
     <g id="line2d_5">
      <path d="M 578.765719 252.723267 
L 578.765719 23.229938 
" clip-path="url(#p881355a1e5)" style="fill: none; stroke-dasharray: 0.8,1.32; stroke-dashoffset: 0; stroke: #cccccc; stroke-opacity: 0.5; stroke-width: 0.8"/>
     </g>
     <g id="text_5">
      <!-- muito alto -->
      <g style="fill: #262626" transform="translate(525.125767 286.771866) rotate(-20) scale(0.11 -0.11)">
       <use xlink:href="#DejaVuSans-50"/>
       <use xlink:href="#DejaVuSans-58" transform="translate(97.40625 0)"/>
       <use xlink:href="#DejaVuSans-4c" transform="translate(160.78125 0)"/>
       <use xlink:href="#DejaVuSans-57" transform="translate(188.5625 0)"/>
       <use xlink:href="#DejaVuSans-52" transform="translate(227.765625 0)"/>
       <use xlink:href="#DejaVuSans-3" transform="translate(288.953125 0)"/>
       <use xlink:href="#DejaVuSans-44" transform="translate(320.734375 0)"/>
       <use xlink:href="#DejaVuSans-4f" transform="translate(382.015625 0)"/>
       <use xlink:href="#DejaVuSans-57" transform="translate(409.796875 0)"/>
       <use xlink:href="#DejaVuSans-52" transform="translate(449 0)"/>
      </g>
     </g>
    </g>
    <g id="text_6">
     <!-- Impacto atribuído (escala ordinal SGD) -->
     <g style="fill: #262626" transform="translate(252.128281 305.077832) scale(0.11 -0.11)">
      <defs>
       <path id="DejaVuSans-2c" d="M 628 4666 
L 1259 4666 
L 1259 0 
L 628 0 
L 628 4666 
z
" transform="scale(0.015625)"/>
       <path id="DejaVuSans-53" d="M 1159 525 
L 1159 -1331 
L 581 -1331 
L 581 3500 
L 1159 3500 
L 1159 2969 
Q 1341 3281 1617 3432 
Q 1894 3584 2278 3584 
Q 2916 3584 3314 3078 
Q 3713 2572 3713 1747 
Q 3713 922 3314 415 
Q 2916 -91 2278 -91 
Q 1894 -91 1617 61 
Q 1341 213 1159 525 
z
M 3116 1747 
Q 3116 2381 2855 2742 
Q 2594 3103 2138 3103 
Q 1681 3103 1420 2742 
Q 1159 2381 1159 1747 
Q 1159 1113 1420 752 
Q 1681 391 2138 391 
Q 2594 391 2855 752 
Q 3116 1113 3116 1747 
z
" transform="scale(0.015625)"/>
       <path id="DejaVuSans-46" d="M 3122 3366 
L 3122 2828 
Q 2878 2963 2633 3030 
Q 2388 3097 2138 3097 
Q 1578 3097 1268 2742 
Q 959 2388 959 1747 
Q 959 1106 1268 751 
Q 1578 397 2138 397 
Q 2388 397 2633 464 
Q 2878 531 3122 666 
L 3122 134 
Q 2881 22 2623 -34 
Q 2366 -91 2075 -91 
Q 1284 -91 818 406 
Q 353 903 353 1747 
Q 353 2603 823 3093 
Q 1294 3584 2113 3584 
Q 2378 3584 2631 3529 
Q 2884 3475 3122 3366 
z
" transform="scale(0.015625)"/>
       <path id="DejaVuSans-55" d="M 2631 2963 
Q 2534 3019 2420 3045 
Q 2306 3072 2169 3072 
Q 1681 3072 1420 2755 
Q 1159 2438 1159 1844 
L 1159 0 
L 581 0 
L 581 3500 
L 1159 3500 
L 1159 2956 
Q 1341 3275 1631 3429 
Q 1922 3584 2338 3584 
Q 2397 3584 2469 3576 
Q 2541 3569 2628 3553 
L 2631 2963 
z
" transform="scale(0.015625)"/>
       <path id="DejaVuSans-af" d="M 1325 5119 
L 1947 5119 
L 929 3944 
L 450 3944 
L 1325 5119 
z
M 603 3500 
L 1178 3500 
L 1178 0 
L 603 0 
L 603 3500 
z
M 891 3584 
L 891 3584 
z
" transform="scale(0.015625)"/>
       <path id="DejaVuSans-b" d="M 1984 4856 
Q 1566 4138 1362 3434 
Q 1159 2731 1159 2009 
Q 1159 1288 1364 580 
Q 1569 -128 1984 -844 
L 1484 -844 
Q 1016 -109 783 600 
Q 550 1309 550 2009 
Q 550 2706 781 3412 
Q 1013 4119 1484 4856 
L 1984 4856 
z
" transform="scale(0.015625)"/>
       <path id="DejaVuSans-48" d="M 3597 1894 
L 3597 1613 
L 953 1613 
Q 991 1019 1311 708 
Q 1631 397 2203 397 
Q 2534 397 2845 478 
Q 3156 559 3463 722 
L 3463 178 
Q 3153 47 2828 -22 
Q 2503 -91 2169 -91 
Q 1331 -91 842 396 
Q 353 884 353 1716 
Q 353 2575 817 3079 
Q 1281 3584 2069 3584 
Q 2775 3584 3186 3129 
Q 3597 2675 3597 1894 
z
M 3022 2063 
Q 3016 2534 2758 2815 
Q 2500 3097 2075 3097 
Q 1594 3097 1305 2825 
Q 1016 2553 972 2059 
L 3022 2063 
z
" transform="scale(0.015625)"/>
       <path id="DejaVuSans-56" d="M 2834 3397 
L 2834 2853 
Q 2591 2978 2328 3040 
Q 2066 3103 1784 3103 
Q 1356 3103 1142 2972 
Q 928 2841 928 2578 
Q 928 2378 1081 2264 
Q 1234 2150 1697 2047 
L 1894 2003 
Q 2506 1872 2764 1633 
Q 3022 1394 3022 966 
Q 3022 478 2636 193 
Q 2250 -91 1575 -91 
Q 1294 -91 989 -36 
Q 684 19 347 128 
L 347 722 
Q 666 556 975 473 
Q 1284 391 1588 391 
Q 1994 391 2212 530 
Q 2431 669 2431 922 
Q 2431 1156 2273 1281 
Q 2116 1406 1581 1522 
L 1381 1569 
Q 847 1681 609 1914 
Q 372 2147 372 2553 
Q 372 3047 722 3315 
Q 1072 3584 1716 3584 
Q 2034 3584 2315 3537 
Q 2597 3491 2834 3397 
z
" transform="scale(0.015625)"/>
       <path id="DejaVuSans-51" d="M 3513 2113 
L 3513 0 
L 2938 0 
L 2938 2094 
Q 2938 2591 2744 2837 
Q 2550 3084 2163 3084 
Q 1697 3084 1428 2787 
Q 1159 2491 1159 1978 
L 1159 0 
L 581 0 
L 581 3500 
L 1159 3500 
L 1159 2956 
Q 1366 3272 1645 3428 
Q 1925 3584 2291 3584 
Q 2894 3584 3203 3211 
Q 3513 2838 3513 2113 
z
" transform="scale(0.015625)"/>
       <path id="DejaVuSans-36" d="M 3425 4513 
L 3425 3897 
Q 3066 4069 2747 4153 
Q 2428 4238 2131 4238 
Q 1616 4238 1336 4038 
Q 1056 3838 1056 3469 
Q 1056 3159 1242 3001 
Q 1428 2844 1947 2747 
L 2328 2669 
Q 3034 2534 3370 2195 
Q 3706 1856 3706 1288 
Q 3706 609 3251 259 
Q 2797 -91 1919 -91 
Q 1588 -91 1214 -16 
Q 841 59 441 206 
L 441 856 
Q 825 641 1194 531 
Q 1563 422 1919 422 
Q 2459 422 2753 634 
Q 3047 847 3047 1241 
Q 3047 1584 2836 1778 
Q 2625 1972 2144 2069 
L 1759 2144 
Q 1053 2284 737 2584 
Q 422 2884 422 3419 
Q 422 4038 858 4394 
Q 1294 4750 2059 4750 
Q 2388 4750 2728 4690 
Q 3069 4631 3425 4513 
z
" transform="scale(0.015625)"/>
       <path id="DejaVuSans-2a" d="M 3809 666 
L 3809 1919 
L 2778 1919 
L 2778 2438 
L 4434 2438 
L 4434 434 
Q 4069 175 3628 42 
Q 3188 -91 2688 -91 
Q 1594 -91 976 548 
Q 359 1188 359 2328 
Q 359 3472 976 4111 
Q 1594 4750 2688 4750 
Q 3144 4750 3555 4637 
Q 3966 4525 4313 4306 
L 4313 3634 
Q 3963 3931 3569 4081 
Q 3175 4231 2741 4231 
Q 1884 4231 1454 3753 
Q 1025 3275 1025 2328 
Q 1025 1384 1454 906 
Q 1884 428 2741 428 
Q 3075 428 3337 486 
Q 3600 544 3809 666 
z
" transform="scale(0.015625)"/>
       <path id="DejaVuSans-27" d="M 1259 4147 
L 1259 519 
L 2022 519 
Q 2988 519 3436 956 
Q 3884 1394 3884 2338 
Q 3884 3275 3436 3711 
Q 2988 4147 2022 4147 
L 1259 4147 
z
M 628 4666 
L 1925 4666 
Q 3281 4666 3915 4102 
Q 4550 3538 4550 2338 
Q 4550 1131 3912 565 
Q 3275 0 1925 0 
L 628 0 
L 628 4666 
z
" transform="scale(0.015625)"/>
       <path id="DejaVuSans-c" d="M 513 4856 
L 1013 4856 
Q 1481 4119 1714 3412 
Q 1947 2706 1947 2009 
Q 1947 1309 1714 600 
Q 1481 -109 1013 -844 
L 513 -844 
Q 928 -128 1133 580 
Q 1338 1288 1338 2009 
Q 1338 2731 1133 3434 
Q 928 4138 513 4856 
z
" transform="scale(0.015625)"/>
      </defs>
      <use xlink:href="#DejaVuSans-2c"/>
      <use xlink:href="#DejaVuSans-50" transform="translate(29.5 0)"/>
      <use xlink:href="#DejaVuSans-53" transform="translate(126.90625 0)"/>
      <use xlink:href="#DejaVuSans-44" transform="translate(190.390625 0)"/>
      <use xlink:href="#DejaVuSans-46" transform="translate(251.671875 0)"/>
      <use xlink:href="#DejaVuSans-57" transform="translate(306.65625 0)"/>
      <use xlink:href="#DejaVuSans-52" transform="translate(345.859375 0)"/>
      <use xlink:href="#DejaVuSans-3" transform="translate(407.046875 0)"/>
      <use xlink:href="#DejaVuSans-44" transform="translate(438.828125 0)"/>
      <use xlink:href="#DejaVuSans-57" transform="translate(500.109375 0)"/>
      <use xlink:href="#DejaVuSans-55" transform="translate(539.3125 0)"/>
      <use xlink:href="#DejaVuSans-4c" transform="translate(580.421875 0)"/>
      <use xlink:href="#DejaVuSans-45" transform="translate(608.203125 0)"/>
      <use xlink:href="#DejaVuSans-58" transform="translate(671.6875 0)"/>
      <use xlink:href="#DejaVuSans-af" transform="translate(735.0625 0)"/>
      <use xlink:href="#DejaVuSans-47" transform="translate(762.84375 0)"/>
      <use xlink:href="#DejaVuSans-52" transform="translate(826.328125 0)"/>
      <use xlink:href="#DejaVuSans-3" transform="translate(887.515625 0)"/>
      <use xlink:href="#DejaVuSans-b" transform="translate(919.296875 0)"/>
      <use xlink:href="#DejaVuSans-48" transform="translate(958.3125 0)"/>
      <use xlink:href="#DejaVuSans-56" transform="translate(1019.84375 0)"/>
      <use xlink:href="#DejaVuSans-46" transform="translate(1071.9375 0)"/>
      <use xlink:href="#DejaVuSans-44" transform="translate(1126.921875 0)"/>
      <use xlink:href="#DejaVuSans-4f" transform="translate(1188.203125 0)"/>
      <use xlink:href="#DejaVuSans-44" transform="translate(1215.984375 0)"/>
      <use xlink:href="#DejaVuSans-3" transform="translate(1277.265625 0)"/>
      <use xlink:href="#DejaVuSans-52" transform="translate(1309.046875 0)"/>
      <use xlink:href="#DejaVuSans-55" transform="translate(1370.234375 0)"/>
      <use xlink:href="#DejaVuSans-47" transform="translate(1409.59375 0)"/>
      <use xlink:href="#DejaVuSans-4c" transform="translate(1473.078125 0)"/>
      <use xlink:href="#DejaVuSans-51" transform="translate(1500.859375 0)"/>
      <use xlink:href="#DejaVuSans-44" transform="translate(1564.234375 0)"/>
      <use xlink:href="#DejaVuSans-4f" transform="translate(1625.515625 0)"/>
      <use xlink:href="#DejaVuSans-3" transform="translate(1653.296875 0)"/>
      <use xlink:href="#DejaVuSans-36" transform="translate(1685.078125 0)"/>
      <use xlink:href="#DejaVuSans-2a" transform="translate(1748.5625 0)"/>
      <use xlink:href="#DejaVuSans-27" transform="translate(1826.046875 0)"/>
      <use xlink:href="#DejaVuSans-c" transform="translate(1903.046875 0)"/>
     </g>
    </g>
   </g>
   <g id="matplotlib.axis_2">
    <g id="ytick_1">
     <g id="line2d_6">
      <path d="M 84.161719 242.291752 
L 633.721719 242.291752 
" clip-path="url(#p881355a1e5)" style="fill: none; stroke: #cccccc; stroke-width: 0.8; stroke-linecap: round"/>
     </g>
     <g id="text_7">
      <!-- ANP -->
      <g style="fill: #262626" transform="translate(54.775 246.470463) scale(0.11 -0.11)">
       <defs>
        <path id="DejaVuSans-24" d="M 2188 4044 
L 1331 1722 
L 3047 1722 
L 2188 4044 
z
M 1831 4666 
L 2547 4666 
L 4325 0 
L 3669 0 
L 3244 1197 
L 1141 1197 
L 716 0 
L 50 0 
L 1831 4666 
z
" transform="scale(0.015625)"/>
        <path id="DejaVuSans-31" d="M 628 4666 
L 1478 4666 
L 3547 763 
L 3547 4666 
L 4159 4666 
L 4159 0 
L 3309 0 
L 1241 3903 
L 1241 0 
L 628 0 
L 628 4666 
z
" transform="scale(0.015625)"/>
        <path id="DejaVuSans-33" d="M 1259 4147 
L 1259 2394 
L 2053 2394 
Q 2494 2394 2734 2622 
Q 2975 2850 2975 3272 
Q 2975 3691 2734 3919 
Q 2494 4147 2053 4147 
L 1259 4147 
z
M 628 4666 
L 2053 4666 
Q 2838 4666 3239 4311 
Q 3641 3956 3641 3272 
Q 3641 2581 3239 2228 
Q 2838 1875 2053 1875 
L 1259 1875 
L 1259 0 
L 628 0 
L 628 4666 
z
" transform="scale(0.015625)"/>
       </defs>
       <use xlink:href="#DejaVuSans-24"/>
       <use xlink:href="#DejaVuSans-31" transform="translate(68.40625 0)"/>
       <use xlink:href="#DejaVuSans-33" transform="translate(143.21875 0)"/>
      </g>
     </g>
    </g>
    <g id="ytick_2">
     <g id="line2d_7">
      <path d="M 84.161719 216.212965 
L 633.721719 216.212965 
" clip-path="url(#p881355a1e5)" style="fill: none; stroke: #cccccc; stroke-width: 0.8; stroke-linecap: round"/>
     </g>
     <g id="text_8">
      <!-- IBGE -->
      <g style="fill: #262626" transform="translate(51.088281 220.391676) scale(0.11 -0.11)">
       <defs>
        <path id="DejaVuSans-25" d="M 1259 2228 
L 1259 519 
L 2272 519 
Q 2781 519 3026 730 
Q 3272 941 3272 1375 
Q 3272 1813 3026 2020 
Q 2781 2228 2272 2228 
L 1259 2228 
z
M 1259 4147 
L 1259 2741 
L 2194 2741 
Q 2656 2741 2882 2914 
Q 3109 3088 3109 3444 
Q 3109 3797 2882 3972 
Q 2656 4147 2194 4147 
L 1259 4147 
z
M 628 4666 
L 2241 4666 
Q 2963 4666 3353 4366 
Q 3744 4066 3744 3513 
Q 3744 3084 3544 2831 
Q 3344 2578 2956 2516 
Q 3422 2416 3680 2098 
Q 3938 1781 3938 1306 
Q 3938 681 3513 340 
Q 3088 0 2303 0 
L 628 0 
L 628 4666 
z
" transform="scale(0.015625)"/>
        <path id="DejaVuSans-28" d="M 628 4666 
L 3578 4666 
L 3578 4134 
L 1259 4134 
L 1259 2753 
L 3481 2753 
L 3481 2222 
L 1259 2222 
L 1259 531 
L 3634 531 
L 3634 0 
L 628 0 
L 628 4666 
z
" transform="scale(0.015625)"/>
       </defs>
       <use xlink:href="#DejaVuSans-2c"/>
       <use xlink:href="#DejaVuSans-25" transform="translate(29.5 0)"/>
       <use xlink:href="#DejaVuSans-2a" transform="translate(96.359375 0)"/>
       <use xlink:href="#DejaVuSans-28" transform="translate(173.84375 0)"/>
      </g>
     </g>
    </g>
    <g id="ytick_3">
     <g id="line2d_8">
      <path d="M 84.161719 190.134177 
L 633.721719 190.134177 
" clip-path="url(#p881355a1e5)" style="fill: none; stroke: #cccccc; stroke-width: 0.8; stroke-linecap: round"/>
     </g>
     <g id="text_9">
      <!-- MS -->
      <g style="fill: #262626" transform="translate(60.6875 194.312888) scale(0.11 -0.11)">
       <defs>
        <path id="DejaVuSans-30" d="M 628 4666 
L 1569 4666 
L 2759 1491 
L 3956 4666 
L 4897 4666 
L 4897 0 
L 4281 0 
L 4281 4097 
L 3078 897 
L 2444 897 
L 1241 4097 
L 1241 0 
L 628 0 
L 628 4666 
z
" transform="scale(0.015625)"/>
       </defs>
       <use xlink:href="#DejaVuSans-30"/>
       <use xlink:href="#DejaVuSans-36" transform="translate(86.28125 0)"/>
      </g>
     </g>
    </g>
    <g id="ytick_4">
     <g id="line2d_9">
      <path d="M 84.161719 164.05539 
L 633.721719 164.05539 
" clip-path="url(#p881355a1e5)" style="fill: none; stroke: #cccccc; stroke-width: 0.8; stroke-linecap: round"/>
     </g>
     <g id="text_10">
      <!-- INSS -->
      <g style="fill: #262626" transform="translate(51.720781 168.234101) scale(0.11 -0.11)">
       <use xlink:href="#DejaVuSans-2c"/>
       <use xlink:href="#DejaVuSans-31" transform="translate(29.5 0)"/>
       <use xlink:href="#DejaVuSans-36" transform="translate(104.3125 0)"/>
       <use xlink:href="#DejaVuSans-36" transform="translate(167.796875 0)"/>
      </g>
     </g>
    </g>
    <g id="ytick_5">
     <g id="line2d_10">
      <path d="M 84.161719 137.976602 
L 633.721719 137.976602 
" clip-path="url(#p881355a1e5)" style="fill: none; stroke: #cccccc; stroke-width: 0.8; stroke-linecap: round"/>
     </g>
     <g id="text_11">
      <!-- MMULHERES -->
      <g style="fill: #262626" transform="translate(7.2 142.155313) scale(0.11 -0.11)">
       <defs>
        <path id="DejaVuSans-38" d="M 556 4666 
L 1191 4666 
L 1191 1831 
Q 1191 1081 1462 751 
Q 1734 422 2344 422 
Q 2950 422 3222 751 
Q 3494 1081 3494 1831 
L 3494 4666 
L 4128 4666 
L 4128 1753 
Q 4128 841 3676 375 
Q 3225 -91 2344 -91 
Q 1459 -91 1007 375 
Q 556 841 556 1753 
L 556 4666 
z
" transform="scale(0.015625)"/>
        <path id="DejaVuSans-2f" d="M 628 4666 
L 1259 4666 
L 1259 531 
L 3531 531 
L 3531 0 
L 628 0 
L 628 4666 
z
" transform="scale(0.015625)"/>
        <path id="DejaVuSans-2b" d="M 628 4666 
L 1259 4666 
L 1259 2753 
L 3553 2753 
L 3553 4666 
L 4184 4666 
L 4184 0 
L 3553 0 
L 3553 2222 
L 1259 2222 
L 1259 0 
L 628 0 
L 628 4666 
z
" transform="scale(0.015625)"/>
        <path id="DejaVuSans-35" d="M 2841 2188 
Q 3044 2119 3236 1894 
Q 3428 1669 3622 1275 
L 4263 0 
L 3584 0 
L 2988 1197 
Q 2756 1666 2539 1819 
Q 2322 1972 1947 1972 
L 1259 1972 
L 1259 0 
L 628 0 
L 628 4666 
L 2053 4666 
Q 2853 4666 3247 4331 
Q 3641 3997 3641 3322 
Q 3641 2881 3436 2590 
Q 3231 2300 2841 2188 
z
M 1259 4147 
L 1259 2491 
L 2053 2491 
Q 2509 2491 2742 2702 
Q 2975 2913 2975 3322 
Q 2975 3731 2742 3939 
Q 2509 4147 2053 4147 
L 1259 4147 
z
" transform="scale(0.015625)"/>
       </defs>
       <use xlink:href="#DejaVuSans-30"/>
       <use xlink:href="#DejaVuSans-30" transform="translate(86.28125 0)"/>
       <use xlink:href="#DejaVuSans-38" transform="translate(172.5625 0)"/>
       <use xlink:href="#DejaVuSans-2f" transform="translate(245.75 0)"/>
       <use xlink:href="#DejaVuSans-2b" transform="translate(301.46875 0)"/>
       <use xlink:href="#DejaVuSans-28" transform="translate(376.671875 0)"/>
       <use xlink:href="#DejaVuSans-35" transform="translate(439.859375 0)"/>
       <use xlink:href="#DejaVuSans-28" transform="translate(509.34375 0)"/>
       <use xlink:href="#DejaVuSans-36" transform="translate(572.53125 0)"/>
      </g>
     </g>
    </g>
    <g id="ytick_6">
     <g id="line2d_11">
      <path d="M 84.161719 111.897815 
L 633.721719 111.897815 
" clip-path="url(#p881355a1e5)" style="fill: none; stroke: #cccccc; stroke-width: 0.8; stroke-linecap: round"/>
     </g>
     <g id="text_12">
      <!-- MDHC -->
      <g style="fill: #262626" transform="translate(43.247344 116.076526) scale(0.11 -0.11)">
       <defs>
        <path id="DejaVuSans-26" d="M 4122 4306 
L 4122 3641 
Q 3803 3938 3442 4084 
Q 3081 4231 2675 4231 
Q 1875 4231 1450 3742 
Q 1025 3253 1025 2328 
Q 1025 1406 1450 917 
Q 1875 428 2675 428 
Q 3081 428 3442 575 
Q 3803 722 4122 1019 
L 4122 359 
Q 3791 134 3420 21 
Q 3050 -91 2638 -91 
Q 1578 -91 968 557 
Q 359 1206 359 2328 
Q 359 3453 968 4101 
Q 1578 4750 2638 4750 
Q 3056 4750 3426 4639 
Q 3797 4528 4122 4306 
z
" transform="scale(0.015625)"/>
       </defs>
       <use xlink:href="#DejaVuSans-30"/>
       <use xlink:href="#DejaVuSans-27" transform="translate(86.28125 0)"/>
       <use xlink:href="#DejaVuSans-2b" transform="translate(163.28125 0)"/>
       <use xlink:href="#DejaVuSans-26" transform="translate(238.484375 0)"/>
      </g>
     </g>
    </g>
    <g id="ytick_7">
     <g id="line2d_12">
      <path d="M 84.161719 85.819027 
L 633.721719 85.819027 
" clip-path="url(#p881355a1e5)" style="fill: none; stroke: #cccccc; stroke-width: 0.8; stroke-linecap: round"/>
     </g>
     <g id="text_13">
      <!-- MGI -->
      <g style="fill: #262626" transform="translate(55.9025 89.997738) scale(0.11 -0.11)">
       <use xlink:href="#DejaVuSans-30"/>
       <use xlink:href="#DejaVuSans-2a" transform="translate(86.28125 0)"/>
       <use xlink:href="#DejaVuSans-2c" transform="translate(163.765625 0)"/>
      </g>
     </g>
    </g>
    <g id="ytick_8">
     <g id="line2d_13">
      <path d="M 84.161719 59.74024 
L 633.721719 59.74024 
" clip-path="url(#p881355a1e5)" style="fill: none; stroke: #cccccc; stroke-width: 0.8; stroke-linecap: round"/>
     </g>
     <g id="text_14">
      <!-- MMULHERES -->
      <g style="fill: #262626" transform="translate(7.2 63.918951) scale(0.11 -0.11)">
       <use xlink:href="#DejaVuSans-30"/>
       <use xlink:href="#DejaVuSans-30" transform="translate(86.28125 0)"/>
       <use xlink:href="#DejaVuSans-38" transform="translate(172.5625 0)"/>
       <use xlink:href="#DejaVuSans-2f" transform="translate(245.75 0)"/>
       <use xlink:href="#DejaVuSans-2b" transform="translate(301.46875 0)"/>
       <use xlink:href="#DejaVuSans-28" transform="translate(376.671875 0)"/>
       <use xlink:href="#DejaVuSans-35" transform="translate(439.859375 0)"/>
       <use xlink:href="#DejaVuSans-28" transform="translate(509.34375 0)"/>
       <use xlink:href="#DejaVuSans-36" transform="translate(572.53125 0)"/>
      </g>
     </g>
    </g>
    <g id="ytick_9">
     <g id="line2d_14">
      <path d="M 84.161719 33.661452 
L 633.721719 33.661452 
" clip-path="url(#p881355a1e5)" style="fill: none; stroke: #cccccc; stroke-width: 0.8; stroke-linecap: round"/>
     </g>
     <g id="text_15">
      <!-- SGPR -->
      <g style="fill: #262626" transform="translate(47.379219 37.840163) scale(0.11 -0.11)">
       <use xlink:href="#DejaVuSans-36"/>
       <use xlink:href="#DejaVuSans-2a" transform="translate(63.484375 0)"/>
       <use xlink:href="#DejaVuSans-33" transform="translate(140.96875 0)"/>
       <use xlink:href="#DejaVuSans-35" transform="translate(201.265625 0)"/>
      </g>
     </g>
    </g>
   </g>
   <g id="patch_3">
    <path d="M 84.161719 252.723267 
L 84.161719 23.229937 
" style="fill: none; stroke: #cccccc; stroke-width: 0.8; stroke-linejoin: miter; stroke-linecap: square"/>
   </g>
   <g id="patch_4">
    <path d="M 633.721719 252.723267 
L 633.721719 23.229937 
" style="fill: none; stroke: #cccccc; stroke-width: 0.8; stroke-linejoin: miter; stroke-linecap: square"/>
   </g>
   <g id="patch_5">
    <path d="M 84.161719 252.723267 
L 633.721719 252.723267 
" style="fill: none; stroke: #cccccc; stroke-width: 0.8; stroke-linejoin: miter; stroke-linecap: square"/>
   </g>
   <g id="patch_6">
    <path d="M 84.161719 23.229938 
L 633.721719 23.229938 
" style="fill: none; stroke: #cccccc; stroke-width: 0.8; stroke-linejoin: miter; stroke-linecap: square"/>
   </g>
   <g id="PathCollection_1">
    <defs>
     <path id="m3b6aaa490f" d="M 0 7.416198 
C 1.966799 7.416198 3.853307 6.634781 5.244044 5.244044 
C 6.634781 3.853307 7.416198 1.966799 7.416198 0 
C 7.416198 -1.966799 6.634781 -3.853307 5.244044 -5.244044 
C 3.853307 -6.634781 1.966799 -7.416198 0 -7.416198 
C -1.966799 -7.416198 -3.853307 -6.634781 -5.244044 -5.244044 
C -6.634781 -3.853307 -7.416198 -1.966799 -7.416198 0 
C -7.416198 1.966799 -6.634781 3.853307 -5.244044 5.244044 
C -3.853307 6.634781 -1.966799 7.416198 0 7.416198 
z
" style="stroke: #ffffff; stroke-width: 1.5"/>
    </defs>
    <g clip-path="url(#p881355a1e5)">
     <use xlink:href="#m3b6aaa490f" x="249.029719" y="242.291752" style="fill: #27ae60; stroke: #ffffff; stroke-width: 1.5"/>
    </g>
   </g>
   <g id="PathCollection_2">
    <g clip-path="url(#p881355a1e5)">
     <use xlink:href="#m3b6aaa490f" x="249.029719" y="216.212965" style="fill: #27ae60; stroke: #ffffff; stroke-width: 1.5"/>
    </g>
   </g>
   <g id="PathCollection_3">
    <g clip-path="url(#p881355a1e5)">
     <use xlink:href="#m3b6aaa490f" x="249.029719" y="190.134177" style="fill: #27ae60; stroke: #ffffff; stroke-width: 1.5"/>
    </g>
   </g>
   <g id="PathCollection_4">
    <defs>
     <path id="m571bf57967" d="M 0 7.416198 
C 1.966799 7.416198 3.853307 6.634781 5.244044 5.244044 
C 6.634781 3.853307 7.416198 1.966799 7.416198 0 
C 7.416198 -1.966799 6.634781 -3.853307 5.244044 -5.244044 
C 3.853307 -6.634781 1.966799 -7.416198 0 -7.416198 
C -1.966799 -7.416198 -3.853307 -6.634781 -5.244044 -5.244044 
C -6.634781 -3.853307 -7.416198 -1.966799 -7.416198 0 
C -7.416198 1.966799 -6.634781 3.853307 -5.244044 5.244044 
C -3.853307 6.634781 -1.966799 7.416198 0 7.416198 
z
" style="stroke: #ffffff; stroke-width: 1.5"/>
    </defs>
    <g clip-path="url(#p881355a1e5)">
     <use xlink:href="#m571bf57967" x="358.941719" y="164.05539" style="fill: #c0392b; stroke: #ffffff; stroke-width: 1.5"/>
    </g>
   </g>
   <g id="PathCollection_5">
    <defs>
     <path id="m7576b7c3e0" d="M 0 7.416198 
C 1.966799 7.416198 3.853307 6.634781 5.244044 5.244044 
C 6.634781 3.853307 7.416198 1.966799 7.416198 0 
C 7.416198 -1.966799 6.634781 -3.853307 5.244044 -5.244044 
C 3.853307 -6.634781 1.966799 -7.416198 0 -7.416198 
C -1.966799 -7.416198 -3.853307 -6.634781 -5.244044 -5.244044 
C -6.634781 -3.853307 -7.416198 -1.966799 -7.416198 0 
C -7.416198 1.966799 -6.634781 3.853307 -5.244044 5.244044 
C -3.853307 6.634781 -1.966799 7.416198 0 7.416198 
z
" style="stroke: #ffffff; stroke-width: 1.5"/>
    </defs>
    <g clip-path="url(#p881355a1e5)">
     <use xlink:href="#m7576b7c3e0" x="358.941719" y="137.976602" style="fill: #7f8c8d; stroke: #ffffff; stroke-width: 1.5"/>
    </g>
   </g>
   <g id="PathCollection_6">
    <g clip-path="url(#p881355a1e5)">
     <use xlink:href="#m3b6aaa490f" x="468.853719" y="111.897815" style="fill: #27ae60; stroke: #ffffff; stroke-width: 1.5"/>
    </g>
   </g>
   <g id="PathCollection_7">
    <g clip-path="url(#p881355a1e5)">
     <use xlink:href="#m3b6aaa490f" x="468.853719" y="85.819027" style="fill: #27ae60; stroke: #ffffff; stroke-width: 1.5"/>
    </g>
   </g>
   <g id="PathCollection_8">
    <g clip-path="url(#p881355a1e5)">
     <use xlink:href="#m3b6aaa490f" x="468.853719" y="59.74024" style="fill: #27ae60; stroke: #ffffff; stroke-width: 1.5"/>
    </g>
   </g>
   <g id="PathCollection_9">
    <g clip-path="url(#p881355a1e5)">
     <use xlink:href="#m3b6aaa490f" x="578.765719" y="33.661452" style="fill: #27ae60; stroke: #ffffff; stroke-width: 1.5"/>
    </g>
   </g>
   <g id="text_16">
    <!-- Mesmo risco "digital only", severidade e tratamento divergentes -->
    <g style="fill: #262626" transform="translate(145.357469 17.229938) scale(0.132 -0.132)">
     <defs>
      <path id="DejaVuSans-5" d="M 1147 4666 
L 1147 2931 
L 616 2931 
L 616 4666 
L 1147 4666 
z
M 2328 4666 
L 2328 2931 
L 1797 2931 
L 1797 4666 
L 2328 4666 
z
" transform="scale(0.015625)"/>
      <path id="DejaVuSans-4a" d="M 2906 1791 
Q 2906 2416 2648 2759 
Q 2391 3103 1925 3103 
Q 1463 3103 1205 2759 
Q 947 2416 947 1791 
Q 947 1169 1205 825 
Q 1463 481 1925 481 
Q 2391 481 2648 825 
Q 2906 1169 2906 1791 
z
M 3481 434 
Q 3481 -459 3084 -895 
Q 2688 -1331 1869 -1331 
Q 1566 -1331 1297 -1286 
Q 1028 -1241 775 -1147 
L 775 -588 
Q 1028 -725 1275 -790 
Q 1522 -856 1778 -856 
Q 2344 -856 2625 -561 
Q 2906 -266 2906 331 
L 2906 616 
Q 2728 306 2450 153 
Q 2172 0 1784 0 
Q 1141 0 747 490 
Q 353 981 353 1791 
Q 353 2603 747 3093 
Q 1141 3584 1784 3584 
Q 2172 3584 2450 3431 
Q 2728 3278 2906 2969 
L 2906 3500 
L 3481 3500 
L 3481 434 
z
" transform="scale(0.015625)"/>
      <path id="DejaVuSans-5c" d="M 2059 -325 
Q 1816 -950 1584 -1140 
Q 1353 -1331 966 -1331 
L 506 -1331 
L 506 -850 
L 844 -850 
Q 1081 -850 1212 -737 
Q 1344 -625 1503 -206 
L 1606 56 
L 191 3500 
L 800 3500 
L 1894 763 
L 2988 3500 
L 3597 3500 
L 2059 -325 
z
" transform="scale(0.015625)"/>
      <path id="DejaVuSans-f" d="M 750 794 
L 1409 794 
L 1409 256 
L 897 -744 
L 494 -744 
L 750 256 
L 750 794 
z
" transform="scale(0.015625)"/>
      <path id="DejaVuSans-59" d="M 191 3500 
L 800 3500 
L 1894 563 
L 2988 3500 
L 3597 3500 
L 2284 0 
L 1503 0 
L 191 3500 
z
" transform="scale(0.015625)"/>
     </defs>
     <use xlink:href="#DejaVuSans-30"/>
     <use xlink:href="#DejaVuSans-48" transform="translate(86.28125 0)"/>
     <use xlink:href="#DejaVuSans-56" transform="translate(147.8125 0)"/>
     <use xlink:href="#DejaVuSans-50" transform="translate(199.90625 0)"/>
     <use xlink:href="#DejaVuSans-52" transform="translate(297.3125 0)"/>
     <use xlink:href="#DejaVuSans-3" transform="translate(358.5 0)"/>
     <use xlink:href="#DejaVuSans-55" transform="translate(390.28125 0)"/>
     <use xlink:href="#DejaVuSans-4c" transform="translate(431.390625 0)"/>
     <use xlink:href="#DejaVuSans-56" transform="translate(459.171875 0)"/>
     <use xlink:href="#DejaVuSans-46" transform="translate(511.265625 0)"/>
     <use xlink:href="#DejaVuSans-52" transform="translate(566.25 0)"/>
     <use xlink:href="#DejaVuSans-3" transform="translate(627.4375 0)"/>
     <use xlink:href="#DejaVuSans-5" transform="translate(659.21875 0)"/>
     <use xlink:href="#DejaVuSans-47" transform="translate(705.21875 0)"/>
     <use xlink:href="#DejaVuSans-4c" transform="translate(768.703125 0)"/>
     <use xlink:href="#DejaVuSans-4a" transform="translate(796.484375 0)"/>
     <use xlink:href="#DejaVuSans-4c" transform="translate(859.96875 0)"/>
     <use xlink:href="#DejaVuSans-57" transform="translate(887.75 0)"/>
     <use xlink:href="#DejaVuSans-44" transform="translate(926.953125 0)"/>
     <use xlink:href="#DejaVuSans-4f" transform="translate(988.234375 0)"/>
     <use xlink:href="#DejaVuSans-3" transform="translate(1016.015625 0)"/>
     <use xlink:href="#DejaVuSans-52" transform="translate(1047.796875 0)"/>
     <use xlink:href="#DejaVuSans-51" transform="translate(1108.984375 0)"/>
     <use xlink:href="#DejaVuSans-4f" transform="translate(1172.359375 0)"/>
     <use xlink:href="#DejaVuSans-5c" transform="translate(1200.140625 0)"/>
     <use xlink:href="#DejaVuSans-5" transform="translate(1259.328125 0)"/>
     <use xlink:href="#DejaVuSans-f" transform="translate(1305.328125 0)"/>
     <use xlink:href="#DejaVuSans-3" transform="translate(1337.109375 0)"/>
     <use xlink:href="#DejaVuSans-56" transform="translate(1368.890625 0)"/>
     <use xlink:href="#DejaVuSans-48" transform="translate(1420.984375 0)"/>
     <use xlink:href="#DejaVuSans-59" transform="translate(1482.515625 0)"/>
     <use xlink:href="#DejaVuSans-48" transform="translate(1541.703125 0)"/>
     <use xlink:href="#DejaVuSans-55" transform="translate(1603.234375 0)"/>
     <use xlink:href="#DejaVuSans-4c" transform="translate(1644.34375 0)"/>
     <use xlink:href="#DejaVuSans-47" transform="translate(1672.125 0)"/>
     <use xlink:href="#DejaVuSans-44" transform="translate(1735.609375 0)"/>
     <use xlink:href="#DejaVuSans-47" transform="translate(1796.890625 0)"/>
     <use xlink:href="#DejaVuSans-48" transform="translate(1860.375 0)"/>
     <use xlink:href="#DejaVuSans-3" transform="translate(1921.90625 0)"/>
     <use xlink:href="#DejaVuSans-48" transform="translate(1953.6875 0)"/>
     <use xlink:href="#DejaVuSans-3" transform="translate(2015.21875 0)"/>
     <use xlink:href="#DejaVuSans-57" transform="translate(2047 0)"/>
     <use xlink:href="#DejaVuSans-55" transform="translate(2086.203125 0)"/>
     <use xlink:href="#DejaVuSans-44" transform="translate(2127.3125 0)"/>
     <use xlink:href="#DejaVuSans-57" transform="translate(2188.59375 0)"/>
     <use xlink:href="#DejaVuSans-44" transform="translate(2227.796875 0)"/>
     <use xlink:href="#DejaVuSans-50" transform="translate(2289.078125 0)"/>
     <use xlink:href="#DejaVuSans-48" transform="translate(2386.484375 0)"/>
     <use xlink:href="#DejaVuSans-51" transform="translate(2448.015625 0)"/>
     <use xlink:href="#DejaVuSans-57" transform="translate(2511.390625 0)"/>
     <use xlink:href="#DejaVuSans-52" transform="translate(2550.59375 0)"/>
     <use xlink:href="#DejaVuSans-3" transform="translate(2611.78125 0)"/>
     <use xlink:href="#DejaVuSans-47" transform="translate(2643.5625 0)"/>
     <use xlink:href="#DejaVuSans-4c" transform="translate(2707.046875 0)"/>
     <use xlink:href="#DejaVuSans-59" transform="translate(2734.828125 0)"/>
     <use xlink:href="#DejaVuSans-48" transform="translate(2794.015625 0)"/>
     <use xlink:href="#DejaVuSans-55" transform="translate(2855.546875 0)"/>
     <use xlink:href="#DejaVuSans-4a" transform="translate(2894.90625 0)"/>
     <use xlink:href="#DejaVuSans-48" transform="translate(2958.390625 0)"/>
     <use xlink:href="#DejaVuSans-51" transform="translate(3019.921875 0)"/>
     <use xlink:href="#DejaVuSans-57" transform="translate(3083.296875 0)"/>
     <use xlink:href="#DejaVuSans-48" transform="translate(3122.5 0)"/>
     <use xlink:href="#DejaVuSans-56" transform="translate(3184.03125 0)"/>
    </g>
   </g>
   <g id="legend_1">
    <g id="patch_7">
     <path d="M 539.804063 247.223267 
L 626.021719 247.223267 
Q 628.221719 247.223267 628.221719 245.023267 
L 628.221719 163.61897 
Q 628.221719 161.41897 626.021719 161.41897 
L 539.804063 161.41897 
Q 537.604063 161.41897 537.604063 163.61897 
L 537.604063 245.023267 
Q 537.604063 247.223267 539.804063 247.223267 
z
" style="fill: #ffffff; opacity: 0.9; stroke: #cccccc; stroke-linejoin: miter"/>
    </g>
    <g id="text_17">
     <!-- Tratamento -->
     <g style="fill: #262626" transform="translate(551.455469 174.177251) scale(0.11 -0.11)">
      <defs>
       <path id="DejaVuSans-37" d="M -19 4666 
L 3928 4666 
L 3928 4134 
L 2272 4134 
L 2272 0 
L 1638 0 
L 1638 4134 
L -19 4134 
L -19 4666 
z
" transform="scale(0.015625)"/>
      </defs>
      <use xlink:href="#DejaVuSans-37"/>
      <use xlink:href="#DejaVuSans-55" transform="translate(46.375 0)"/>
      <use xlink:href="#DejaVuSans-44" transform="translate(87.484375 0)"/>
      <use xlink:href="#DejaVuSans-57" transform="translate(148.765625 0)"/>
      <use xlink:href="#DejaVuSans-44" transform="translate(187.96875 0)"/>
      <use xlink:href="#DejaVuSans-50" transform="translate(249.25 0)"/>
      <use xlink:href="#DejaVuSans-48" transform="translate(346.65625 0)"/>
      <use xlink:href="#DejaVuSans-51" transform="translate(408.1875 0)"/>
      <use xlink:href="#DejaVuSans-57" transform="translate(471.5625 0)"/>
      <use xlink:href="#DejaVuSans-52" transform="translate(510.765625 0)"/>
     </g>
    </g>
    <g id="line2d_15">
     <defs>
      <path id="mb81be9b406" d="M 0 5 
C 1.326016 5 2.597899 4.473168 3.535534 3.535534 
C 4.473168 2.597899 5 1.326016 5 0 
C 5 -1.326016 4.473168 -2.597899 3.535534 -3.535534 
C 2.597899 -4.473168 1.326016 -5 0 -5 
C -1.326016 -5 -2.597899 -4.473168 -3.535534 -3.535534 
C -4.473168 -2.597899 -5 -1.326016 -5 0 
C -5 1.326016 -4.473168 2.597899 -3.535534 3.535534 
C -2.597899 4.473168 -1.326016 5 0 5 
z
" style="stroke: #ffffff"/>
     </defs>
     <g>
      <use xlink:href="#mb81be9b406" x="553.004063" y="186.828111" style="fill: #27ae60; stroke: #ffffff"/>
     </g>
    </g>
    <g id="text_18">
     <!-- mitigar -->
     <g style="fill: #262626" transform="translate(572.804062 190.678111) scale(0.11 -0.11)">
      <use xlink:href="#DejaVuSans-50"/>
      <use xlink:href="#DejaVuSans-4c" transform="translate(97.40625 0)"/>
      <use xlink:href="#DejaVuSans-57" transform="translate(125.1875 0)"/>
      <use xlink:href="#DejaVuSans-4c" transform="translate(164.390625 0)"/>
      <use xlink:href="#DejaVuSans-4a" transform="translate(192.171875 0)"/>
      <use xlink:href="#DejaVuSans-44" transform="translate(255.65625 0)"/>
      <use xlink:href="#DejaVuSans-55" transform="translate(316.9375 0)"/>
     </g>
    </g>
    <g id="line2d_16">
     <defs>
      <path id="m7340a2ef73" d="M 0 5 
C 1.326016 5 2.597899 4.473168 3.535534 3.535534 
C 4.473168 2.597899 5 1.326016 5 0 
C 5 -1.326016 4.473168 -2.597899 3.535534 -3.535534 
C 2.597899 -4.473168 1.326016 -5 0 -5 
C -1.326016 -5 -2.597899 -4.473168 -3.535534 -3.535534 
C -4.473168 -2.597899 -5 -1.326016 -5 0 
C -5 1.326016 -4.473168 2.597899 -3.535534 3.535534 
C -2.597899 4.473168 -1.326016 5 0 5 
z
" style="stroke: #ffffff"/>
     </defs>
     <g>
      <use xlink:href="#m7340a2ef73" x="553.004063" y="203.32897" style="fill: #c0392b; stroke: #ffffff"/>
     </g>
    </g>
    <g id="text_19">
     <!-- aceitar -->
     <g style="fill: #262626" transform="translate(572.804062 207.17897) scale(0.11 -0.11)">
      <use xlink:href="#DejaVuSans-44"/>
      <use xlink:href="#DejaVuSans-46" transform="translate(61.28125 0)"/>
      <use xlink:href="#DejaVuSans-48" transform="translate(116.265625 0)"/>
      <use xlink:href="#DejaVuSans-4c" transform="translate(177.796875 0)"/>
      <use xlink:href="#DejaVuSans-57" transform="translate(205.578125 0)"/>
      <use xlink:href="#DejaVuSans-44" transform="translate(244.78125 0)"/>
      <use xlink:href="#DejaVuSans-55" transform="translate(306.0625 0)"/>
     </g>
    </g>
    <g id="line2d_17">
     <defs>
      <path id="maae6af4da9" d="M 0 5 
C 1.326016 5 2.597899 4.473168 3.535534 3.535534 
C 4.473168 2.597899 5 1.326016 5 0 
C 5 -1.326016 4.473168 -2.597899 3.535534 -3.535534 
C 2.597899 -4.473168 1.326016 -5 0 -5 
C -1.326016 -5 -2.597899 -4.473168 -3.535534 -3.535534 
C -4.473168 -2.597899 -5 -1.326016 -5 0 
C -5 1.326016 -4.473168 2.597899 -3.535534 3.535534 
C -2.597899 4.473168 -1.326016 5 0 5 
z
" style="stroke: #ffffff"/>
     </defs>
     <g>
      <use xlink:href="#maae6af4da9" x="553.004063" y="219.82983" style="fill: #e67e22; stroke: #ffffff"/>
     </g>
    </g>
    <g id="text_20">
     <!-- transferir -->
     <g style="fill: #262626" transform="translate(572.804062 223.67983) scale(0.11 -0.11)">
      <defs>
       <path id="DejaVuSans-49" d="M 2375 4863 
L 2375 4384 
L 1825 4384 
Q 1516 4384 1395 4259 
Q 1275 4134 1275 3809 
L 1275 3500 
L 2222 3500 
L 2222 3053 
L 1275 3053 
L 1275 0 
L 697 0 
L 697 3053 
L 147 3053 
L 147 3500 
L 697 3500 
L 697 3744 
Q 697 4328 969 4595 
Q 1241 4863 1831 4863 
L 2375 4863 
z
" transform="scale(0.015625)"/>
      </defs>
      <use xlink:href="#DejaVuSans-57"/>
      <use xlink:href="#DejaVuSans-55" transform="translate(39.203125 0)"/>
      <use xlink:href="#DejaVuSans-44" transform="translate(80.3125 0)"/>
      <use xlink:href="#DejaVuSans-51" transform="translate(141.59375 0)"/>
      <use xlink:href="#DejaVuSans-56" transform="translate(204.96875 0)"/>
      <use xlink:href="#DejaVuSans-49" transform="translate(257.0625 0)"/>
      <use xlink:href="#DejaVuSans-48" transform="translate(292.265625 0)"/>
      <use xlink:href="#DejaVuSans-55" transform="translate(353.796875 0)"/>
      <use xlink:href="#DejaVuSans-4c" transform="translate(394.90625 0)"/>
      <use xlink:href="#DejaVuSans-55" transform="translate(422.6875 0)"/>
     </g>
    </g>
    <g id="line2d_18">
     <defs>
      <path id="m23014c0027" d="M 0 5 
C 1.326016 5 2.597899 4.473168 3.535534 3.535534 
C 4.473168 2.597899 5 1.326016 5 0 
C 5 -1.326016 4.473168 -2.597899 3.535534 -3.535534 
C 2.597899 -4.473168 1.326016 -5 0 -5 
C -1.326016 -5 -2.597899 -4.473168 -3.535534 -3.535534 
C -4.473168 -2.597899 -5 -1.326016 -5 0 
C -5 1.326016 -4.473168 2.597899 -3.535534 3.535534 
C -2.597899 4.473168 -1.326016 5 0 5 
z
" style="stroke: #ffffff"/>
     </defs>
     <g>
      <use xlink:href="#m23014c0027" x="553.004063" y="236.330689" style="fill: #2980b9; stroke: #ffffff"/>
     </g>
    </g>
    <g id="text_21">
     <!-- eliminar -->
     <g style="fill: #262626" transform="translate(572.804062 240.180689) scale(0.11 -0.11)">
      <use xlink:href="#DejaVuSans-48"/>
      <use xlink:href="#DejaVuSans-4f" transform="translate(61.53125 0)"/>
      <use xlink:href="#DejaVuSans-4c" transform="translate(89.3125 0)"/>
      <use xlink:href="#DejaVuSans-50" transform="translate(117.09375 0)"/>
      <use xlink:href="#DejaVuSans-4c" transform="translate(214.5 0)"/>
      <use xlink:href="#DejaVuSans-51" transform="translate(242.28125 0)"/>
      <use xlink:href="#DejaVuSans-44" transform="translate(305.65625 0)"/>
      <use xlink:href="#DejaVuSans-55" transform="translate(366.9375 0)"/>
     </g>
    </g>
   </g>
  </g>
 </g>
 <defs>
  <clipPath id="p881355a1e5">
   <rect x="84.161719" y="23.229938" width="549.56" height="229.49333"/>
  </clipPath>
 </defs>
</svg>
